<mxfile host="app.diagrams.net" modified="2021-10-03T23:08:43.569Z" agent="5.0 (Windows NT 10.0; Win64; x64) AppleWebKit/537.36 (KHTML, like Gecko) Chrome/94.0.4606.61 Safari/537.36" etag="Ht3-aBYQ7vC-e95To2Hx" version="15.2.9" type="github">
  <diagram id="U7FQKzj0KKo6KFz438_E" name="Page-1">
    <mxGraphModel dx="1422" dy="762" grid="1" gridSize="10" guides="1" tooltips="1" connect="1" arrows="1" fold="1" page="1" pageScale="1" pageWidth="827" pageHeight="1169" math="0" shadow="0">
      <root>
        <mxCell id="0" />
        <mxCell id="1" parent="0" />
        <mxCell id="l0JN7coe31MeSaqRDZ9P-1" value="Member" style="shape=umlActor;verticalLabelPosition=bottom;verticalAlign=top;html=1;outlineConnect=0;" vertex="1" parent="1">
          <mxGeometry x="60" y="45" width="30" height="60" as="geometry" />
        </mxCell>
        <mxCell id="l0JN7coe31MeSaqRDZ9P-2" value="System" style="shape=umlActor;verticalLabelPosition=bottom;verticalAlign=top;html=1;outlineConnect=0;" vertex="1" parent="1">
          <mxGeometry x="790" y="740" width="30" height="60" as="geometry" />
        </mxCell>
        <mxCell id="l0JN7coe31MeSaqRDZ9P-3" value="Receptionist" style="shape=umlActor;verticalLabelPosition=bottom;verticalAlign=top;html=1;outlineConnect=0;" vertex="1" parent="1">
          <mxGeometry x="30" y="395" width="30" height="60" as="geometry" />
        </mxCell>
        <mxCell id="l0JN7coe31MeSaqRDZ9P-4" value="&lt;span style=&quot;font-size: 11pt ; font-family: &amp;#34;arial&amp;#34; ; background-color: transparent ; vertical-align: baseline&quot; id=&quot;docs-internal-guid-008b43b6-7fff-8db2-846b-b508e2cdc270&quot;&gt;Add&lt;br&gt;&lt;/span&gt;" style="ellipse;whiteSpace=wrap;html=1;" vertex="1" parent="1">
          <mxGeometry x="290" y="25" width="100" height="55" as="geometry" />
        </mxCell>
        <mxCell id="l0JN7coe31MeSaqRDZ9P-5" value="Search Vehicle Catalog" style="ellipse;whiteSpace=wrap;html=1;" vertex="1" parent="1">
          <mxGeometry x="180" y="310" width="120" height="80" as="geometry" />
        </mxCell>
        <mxCell id="l0JN7coe31MeSaqRDZ9P-6" value="Register New Account( Member)" style="ellipse;whiteSpace=wrap;html=1;" vertex="1" parent="1">
          <mxGeometry x="340" y="470" width="120" height="80" as="geometry" />
        </mxCell>
        <mxCell id="l0JN7coe31MeSaqRDZ9P-7" value="Rent Additional Service" style="ellipse;whiteSpace=wrap;html=1;" vertex="1" parent="1">
          <mxGeometry x="170" y="520" width="120" height="80" as="geometry" />
        </mxCell>
        <mxCell id="l0JN7coe31MeSaqRDZ9P-8" value="Check out reservation" style="ellipse;whiteSpace=wrap;html=1;" vertex="1" parent="1">
          <mxGeometry x="170" y="410" width="120" height="80" as="geometry" />
        </mxCell>
        <mxCell id="l0JN7coe31MeSaqRDZ9P-9" value="Search by Date" style="ellipse;whiteSpace=wrap;html=1;" vertex="1" parent="1">
          <mxGeometry x="330" y="310" width="80" height="50" as="geometry" />
        </mxCell>
        <mxCell id="l0JN7coe31MeSaqRDZ9P-10" value="Search by Color" style="ellipse;whiteSpace=wrap;html=1;" vertex="1" parent="1">
          <mxGeometry x="310" y="230" width="80" height="40" as="geometry" />
        </mxCell>
        <mxCell id="l0JN7coe31MeSaqRDZ9P-11" value="Search by price" style="ellipse;whiteSpace=wrap;html=1;" vertex="1" parent="1">
          <mxGeometry x="270" y="160" width="80" height="50" as="geometry" />
        </mxCell>
        <mxCell id="l0JN7coe31MeSaqRDZ9P-12" value="Search by Vehicle Name" style="ellipse;whiteSpace=wrap;html=1;" vertex="1" parent="1">
          <mxGeometry x="185" y="210" width="90" height="50" as="geometry" />
        </mxCell>
        <mxCell id="l0JN7coe31MeSaqRDZ9P-13" value="Rent Additional Equipment" style="ellipse;whiteSpace=wrap;html=1;" vertex="1" parent="1">
          <mxGeometry x="470" y="560" width="90" height="60" as="geometry" />
        </mxCell>
        <mxCell id="l0JN7coe31MeSaqRDZ9P-14" value="Rent Insurance" style="ellipse;whiteSpace=wrap;html=1;" vertex="1" parent="1">
          <mxGeometry x="345" y="620" width="80" height="50" as="geometry" />
        </mxCell>
        <mxCell id="l0JN7coe31MeSaqRDZ9P-15" value="&amp;lt;&amp;lt;extends&amp;gt;&amp;gt;" style="endArrow=open;endSize=12;dashed=1;html=1;rounded=0;edgeStyle=orthogonalEdgeStyle;exitX=0;exitY=0.5;exitDx=0;exitDy=0;" edge="1" parent="1" source="l0JN7coe31MeSaqRDZ9P-12" target="l0JN7coe31MeSaqRDZ9P-5">
          <mxGeometry width="160" relative="1" as="geometry">
            <mxPoint x="300" y="240" as="sourcePoint" />
            <mxPoint x="460" y="240" as="targetPoint" />
            <mxPoint as="offset" />
          </mxGeometry>
        </mxCell>
        <mxCell id="l0JN7coe31MeSaqRDZ9P-16" value="&amp;lt;&amp;lt;extends&amp;gt;&amp;gt;" style="endArrow=open;endSize=12;dashed=1;html=1;rounded=0;edgeStyle=orthogonalEdgeStyle;exitX=0.04;exitY=0.821;exitDx=0;exitDy=0;exitPerimeter=0;entryX=0.929;entryY=0.139;entryDx=0;entryDy=0;entryPerimeter=0;" edge="1" parent="1" source="l0JN7coe31MeSaqRDZ9P-11" target="l0JN7coe31MeSaqRDZ9P-5">
          <mxGeometry width="160" relative="1" as="geometry">
            <mxPoint x="300" y="240" as="sourcePoint" />
            <mxPoint x="460" y="240" as="targetPoint" />
          </mxGeometry>
        </mxCell>
        <mxCell id="l0JN7coe31MeSaqRDZ9P-17" value="&amp;lt;&amp;lt;extends&amp;gt;&amp;gt;" style="endArrow=open;endSize=12;dashed=1;html=1;rounded=0;edgeStyle=orthogonalEdgeStyle;exitX=0.328;exitY=-0.069;exitDx=0;exitDy=0;exitPerimeter=0;entryX=1.006;entryY=0.307;entryDx=0;entryDy=0;entryPerimeter=0;" edge="1" parent="1" source="l0JN7coe31MeSaqRDZ9P-10" target="l0JN7coe31MeSaqRDZ9P-5">
          <mxGeometry width="160" relative="1" as="geometry">
            <mxPoint x="300" y="240" as="sourcePoint" />
            <mxPoint x="460" y="150" as="targetPoint" />
          </mxGeometry>
        </mxCell>
        <mxCell id="l0JN7coe31MeSaqRDZ9P-18" value="&amp;lt;&amp;lt;extends&amp;gt;&amp;gt;" style="endArrow=open;endSize=12;dashed=1;html=1;rounded=0;edgeStyle=orthogonalEdgeStyle;exitX=0.5;exitY=0;exitDx=0;exitDy=0;entryX=0.973;entryY=0.662;entryDx=0;entryDy=0;entryPerimeter=0;" edge="1" parent="1" source="l0JN7coe31MeSaqRDZ9P-9" target="l0JN7coe31MeSaqRDZ9P-5">
          <mxGeometry width="160" relative="1" as="geometry">
            <mxPoint x="300" y="240" as="sourcePoint" />
            <mxPoint x="460" y="240" as="targetPoint" />
          </mxGeometry>
        </mxCell>
        <mxCell id="l0JN7coe31MeSaqRDZ9P-19" value="&amp;lt;&amp;lt;include&amp;gt;&amp;gt;" style="endArrow=open;endSize=12;dashed=1;html=1;rounded=0;edgeStyle=orthogonalEdgeStyle;exitX=0.673;exitY=1.001;exitDx=0;exitDy=0;exitPerimeter=0;entryX=0.772;entryY=-0.023;entryDx=0;entryDy=0;entryPerimeter=0;" edge="1" parent="1" source="l0JN7coe31MeSaqRDZ9P-7" target="l0JN7coe31MeSaqRDZ9P-14">
          <mxGeometry width="160" relative="1" as="geometry">
            <mxPoint x="300" y="240" as="sourcePoint" />
            <mxPoint x="460" y="240" as="targetPoint" />
          </mxGeometry>
        </mxCell>
        <mxCell id="l0JN7coe31MeSaqRDZ9P-20" value="&amp;lt;&amp;lt;include&amp;gt;&amp;gt;" style="endArrow=open;endSize=12;dashed=1;html=1;rounded=0;edgeStyle=orthogonalEdgeStyle;exitX=1;exitY=0.5;exitDx=0;exitDy=0;" edge="1" parent="1" source="l0JN7coe31MeSaqRDZ9P-7" target="l0JN7coe31MeSaqRDZ9P-13">
          <mxGeometry width="160" relative="1" as="geometry">
            <mxPoint x="300" y="240" as="sourcePoint" />
            <mxPoint x="450" y="460" as="targetPoint" />
          </mxGeometry>
        </mxCell>
        <mxCell id="l0JN7coe31MeSaqRDZ9P-21" value="Reserve Vehicle" style="ellipse;whiteSpace=wrap;html=1;" vertex="1" parent="1">
          <mxGeometry x="520" y="390" width="100" height="40" as="geometry" />
        </mxCell>
        <mxCell id="l0JN7coe31MeSaqRDZ9P-22" value="Remove Reservation" style="ellipse;whiteSpace=wrap;html=1;" vertex="1" parent="1">
          <mxGeometry x="530" y="460" width="90" height="50" as="geometry" />
        </mxCell>
        <mxCell id="l0JN7coe31MeSaqRDZ9P-23" value="&amp;lt;&amp;lt;include&amp;gt;&amp;gt;" style="endArrow=open;endSize=12;dashed=1;html=1;rounded=0;edgeStyle=orthogonalEdgeStyle;exitX=1;exitY=0.638;exitDx=0;exitDy=0;exitPerimeter=0;entryX=0.5;entryY=0;entryDx=0;entryDy=0;" edge="1" parent="1" source="l0JN7coe31MeSaqRDZ9P-8" target="l0JN7coe31MeSaqRDZ9P-22">
          <mxGeometry width="160" relative="1" as="geometry">
            <mxPoint x="300" y="230" as="sourcePoint" />
            <mxPoint x="460" y="230" as="targetPoint" />
          </mxGeometry>
        </mxCell>
        <mxCell id="l0JN7coe31MeSaqRDZ9P-24" value="&amp;lt;&amp;lt;include&amp;gt;&amp;gt;" style="endArrow=open;endSize=12;dashed=1;html=1;rounded=0;edgeStyle=orthogonalEdgeStyle;entryX=0.5;entryY=0;entryDx=0;entryDy=0;" edge="1" parent="1" source="l0JN7coe31MeSaqRDZ9P-8" target="l0JN7coe31MeSaqRDZ9P-21">
          <mxGeometry width="160" relative="1" as="geometry">
            <mxPoint x="300" y="230" as="sourcePoint" />
            <mxPoint x="460" y="230" as="targetPoint" />
          </mxGeometry>
        </mxCell>
        <mxCell id="l0JN7coe31MeSaqRDZ9P-25" value="" style="edgeStyle=orthogonalEdgeStyle;rounded=0;orthogonalLoop=1;jettySize=auto;html=1;" edge="1" parent="1" source="l0JN7coe31MeSaqRDZ9P-26" target="l0JN7coe31MeSaqRDZ9P-27">
          <mxGeometry relative="1" as="geometry" />
        </mxCell>
        <mxCell id="l0JN7coe31MeSaqRDZ9P-26" value="Add Parking Stall Number" style="ellipse;whiteSpace=wrap;html=1;" vertex="1" parent="1">
          <mxGeometry x="385" y="105" width="80" height="65" as="geometry" />
        </mxCell>
        <mxCell id="l0JN7coe31MeSaqRDZ9P-27" value="Remove" style="ellipse;whiteSpace=wrap;html=1;" vertex="1" parent="1">
          <mxGeometry x="450" y="170" width="150" height="70" as="geometry" />
        </mxCell>
        <mxCell id="l0JN7coe31MeSaqRDZ9P-28" value="Add Barcode" style="ellipse;whiteSpace=wrap;html=1;" vertex="1" parent="1">
          <mxGeometry x="490" y="60" width="80" height="60" as="geometry" />
        </mxCell>
        <mxCell id="l0JN7coe31MeSaqRDZ9P-29" value="Add Vehicle" style="ellipse;whiteSpace=wrap;html=1;" vertex="1" parent="1">
          <mxGeometry x="430" y="10" width="80" height="50" as="geometry" />
        </mxCell>
        <mxCell id="l0JN7coe31MeSaqRDZ9P-30" value="&amp;lt;&amp;lt;include&amp;gt;&amp;gt;" style="endArrow=open;endSize=12;dashed=1;html=1;rounded=0;edgeStyle=orthogonalEdgeStyle;exitX=0.658;exitY=-0.018;exitDx=0;exitDy=0;exitPerimeter=0;" edge="1" parent="1" source="l0JN7coe31MeSaqRDZ9P-4">
          <mxGeometry width="160" relative="1" as="geometry">
            <mxPoint x="430" y="380" as="sourcePoint" />
            <mxPoint x="430" y="24" as="targetPoint" />
          </mxGeometry>
        </mxCell>
        <mxCell id="l0JN7coe31MeSaqRDZ9P-31" value="&amp;lt;&amp;lt;include&amp;gt;&amp;gt;" style="endArrow=open;endSize=12;dashed=1;html=1;rounded=0;edgeStyle=orthogonalEdgeStyle;exitX=1.019;exitY=0.708;exitDx=0;exitDy=0;exitPerimeter=0;entryX=0.003;entryY=0.383;entryDx=0;entryDy=0;entryPerimeter=0;" edge="1" parent="1" source="l0JN7coe31MeSaqRDZ9P-4" target="l0JN7coe31MeSaqRDZ9P-28">
          <mxGeometry width="160" relative="1" as="geometry">
            <mxPoint x="430" y="380" as="sourcePoint" />
            <mxPoint x="470" y="85" as="targetPoint" />
          </mxGeometry>
        </mxCell>
        <mxCell id="l0JN7coe31MeSaqRDZ9P-32" value="&amp;lt;&amp;lt;include&amp;gt;&amp;gt;" style="endArrow=open;endSize=12;dashed=1;html=1;rounded=0;edgeStyle=orthogonalEdgeStyle;exitX=1;exitY=1;exitDx=0;exitDy=0;entryX=0;entryY=0.5;entryDx=0;entryDy=0;" edge="1" parent="1" source="l0JN7coe31MeSaqRDZ9P-4" target="l0JN7coe31MeSaqRDZ9P-26">
          <mxGeometry width="160" relative="1" as="geometry">
            <mxPoint x="430" y="380" as="sourcePoint" />
            <mxPoint x="590" y="380" as="targetPoint" />
          </mxGeometry>
        </mxCell>
        <mxCell id="l0JN7coe31MeSaqRDZ9P-33" value="Edit" style="ellipse;whiteSpace=wrap;html=1;" vertex="1" parent="1">
          <mxGeometry x="475" y="270" width="100" height="55" as="geometry" />
        </mxCell>
        <mxCell id="l0JN7coe31MeSaqRDZ9P-34" value="Remove Parking Stal Number" style="ellipse;whiteSpace=wrap;html=1;" vertex="1" parent="1">
          <mxGeometry x="620" y="195" width="120" height="80" as="geometry" />
        </mxCell>
        <mxCell id="l0JN7coe31MeSaqRDZ9P-35" value="Remove Vehicle" style="ellipse;whiteSpace=wrap;html=1;" vertex="1" parent="1">
          <mxGeometry x="600" y="95" width="120" height="80" as="geometry" />
        </mxCell>
        <mxCell id="l0JN7coe31MeSaqRDZ9P-36" value="&amp;lt;&amp;lt;include&amp;gt;&amp;gt;" style="endArrow=open;endSize=12;dashed=1;html=1;rounded=0;edgeStyle=orthogonalEdgeStyle;exitX=0.602;exitY=0.005;exitDx=0;exitDy=0;exitPerimeter=0;entryX=0;entryY=0.5;entryDx=0;entryDy=0;" edge="1" parent="1" source="l0JN7coe31MeSaqRDZ9P-27" target="l0JN7coe31MeSaqRDZ9P-35">
          <mxGeometry width="160" relative="1" as="geometry">
            <mxPoint x="430" y="370" as="sourcePoint" />
            <mxPoint x="630" y="50" as="targetPoint" />
          </mxGeometry>
        </mxCell>
        <mxCell id="l0JN7coe31MeSaqRDZ9P-37" value="&amp;lt;&amp;lt;include&amp;gt;&amp;gt;" style="endArrow=open;endSize=12;dashed=1;html=1;rounded=0;edgeStyle=orthogonalEdgeStyle;exitX=0.933;exitY=0.143;exitDx=0;exitDy=0;exitPerimeter=0;entryX=0;entryY=0;entryDx=0;entryDy=0;" edge="1" parent="1" source="l0JN7coe31MeSaqRDZ9P-27" target="l0JN7coe31MeSaqRDZ9P-34">
          <mxGeometry width="160" relative="1" as="geometry">
            <mxPoint x="430" y="370" as="sourcePoint" />
            <mxPoint x="590" y="370" as="targetPoint" />
          </mxGeometry>
        </mxCell>
        <mxCell id="l0JN7coe31MeSaqRDZ9P-38" value="Edit Barcode" style="ellipse;whiteSpace=wrap;html=1;" vertex="1" parent="1">
          <mxGeometry x="670" y="420" width="100" height="50" as="geometry" />
        </mxCell>
        <mxCell id="l0JN7coe31MeSaqRDZ9P-39" value="Edit Vehicle" style="ellipse;whiteSpace=wrap;html=1;" vertex="1" parent="1">
          <mxGeometry x="675" y="280" width="90" height="50" as="geometry" />
        </mxCell>
        <mxCell id="l0JN7coe31MeSaqRDZ9P-40" value="Edit Parking Stall Number" style="ellipse;whiteSpace=wrap;html=1;" vertex="1" parent="1">
          <mxGeometry x="690" y="345" width="90" height="50" as="geometry" />
        </mxCell>
        <mxCell id="l0JN7coe31MeSaqRDZ9P-41" value="&amp;lt;&amp;lt;include&amp;gt;&amp;gt;" style="endArrow=open;endSize=12;dashed=1;html=1;rounded=0;edgeStyle=orthogonalEdgeStyle;exitX=1;exitY=0.5;exitDx=0;exitDy=0;entryX=0;entryY=0.5;entryDx=0;entryDy=0;" edge="1" parent="1" source="l0JN7coe31MeSaqRDZ9P-33" target="l0JN7coe31MeSaqRDZ9P-39">
          <mxGeometry width="160" relative="1" as="geometry">
            <mxPoint x="430" y="360" as="sourcePoint" />
            <mxPoint x="590" y="360" as="targetPoint" />
          </mxGeometry>
        </mxCell>
        <mxCell id="l0JN7coe31MeSaqRDZ9P-42" value="&amp;lt;&amp;lt;include&amp;gt;&amp;gt;" style="endArrow=open;endSize=12;dashed=1;html=1;rounded=0;edgeStyle=orthogonalEdgeStyle;exitX=1;exitY=1;exitDx=0;exitDy=0;entryX=0;entryY=0.5;entryDx=0;entryDy=0;" edge="1" parent="1" source="l0JN7coe31MeSaqRDZ9P-33" target="l0JN7coe31MeSaqRDZ9P-40">
          <mxGeometry width="160" relative="1" as="geometry">
            <mxPoint x="430" y="360" as="sourcePoint" />
            <mxPoint x="590" y="360" as="targetPoint" />
          </mxGeometry>
        </mxCell>
        <mxCell id="l0JN7coe31MeSaqRDZ9P-43" value="&amp;lt;&amp;lt;include&amp;gt;&amp;gt;" style="endArrow=open;endSize=12;dashed=1;html=1;rounded=0;edgeStyle=orthogonalEdgeStyle;entryX=0;entryY=0.5;entryDx=0;entryDy=0;" edge="1" parent="1" target="l0JN7coe31MeSaqRDZ9P-38">
          <mxGeometry width="160" relative="1" as="geometry">
            <mxPoint x="560" y="320" as="sourcePoint" />
            <mxPoint x="590" y="360" as="targetPoint" />
          </mxGeometry>
        </mxCell>
        <mxCell id="l0JN7coe31MeSaqRDZ9P-44" value="Send Vehicle Drop Notification" style="ellipse;whiteSpace=wrap;html=1;" vertex="1" parent="1">
          <mxGeometry x="520" y="680" width="120" height="80" as="geometry" />
        </mxCell>
        <mxCell id="l0JN7coe31MeSaqRDZ9P-45" value="Send Reservation Notification" style="ellipse;whiteSpace=wrap;html=1;" vertex="1" parent="1">
          <mxGeometry x="350" y="800" width="120" height="80" as="geometry" />
        </mxCell>
        <mxCell id="l0JN7coe31MeSaqRDZ9P-46" value="Send Overdue Notification" style="ellipse;whiteSpace=wrap;html=1;" vertex="1" parent="1">
          <mxGeometry x="420" y="990" width="120" height="80" as="geometry" />
        </mxCell>
        <mxCell id="l0JN7coe31MeSaqRDZ9P-47" value="Manage Returned Vehicle" style="ellipse;whiteSpace=wrap;html=1;" vertex="1" parent="1">
          <mxGeometry x="320" y="900" width="120" height="80" as="geometry" />
        </mxCell>
        <mxCell id="l0JN7coe31MeSaqRDZ9P-48" value="Return Vehicle" style="ellipse;whiteSpace=wrap;html=1;" vertex="1" parent="1">
          <mxGeometry x="200" y="750" width="90" height="70" as="geometry" />
        </mxCell>
        <mxCell id="l0JN7coe31MeSaqRDZ9P-49" value="View&amp;nbsp; Account" style="ellipse;whiteSpace=wrap;html=1;" vertex="1" parent="1">
          <mxGeometry x="200" y="840" width="120" height="80" as="geometry" />
        </mxCell>
        <mxCell id="l0JN7coe31MeSaqRDZ9P-50" value="Update Reservation" style="ellipse;whiteSpace=wrap;html=1;" vertex="1" parent="1">
          <mxGeometry x="220" y="670" width="120" height="80" as="geometry" />
        </mxCell>
        <mxCell id="l0JN7coe31MeSaqRDZ9P-51" value="Worker" style="shape=umlActor;verticalLabelPosition=bottom;verticalAlign=top;html=1;outlineConnect=0;" vertex="1" parent="1">
          <mxGeometry x="780" y="920" width="30" height="60" as="geometry" />
        </mxCell>
        <mxCell id="l0JN7coe31MeSaqRDZ9P-52" value="Update" style="ellipse;whiteSpace=wrap;html=1;" vertex="1" parent="1">
          <mxGeometry x="170" y="60" width="120" height="80" as="geometry" />
        </mxCell>
        <mxCell id="l0JN7coe31MeSaqRDZ9P-53" value="" style="endArrow=none;html=1;edgeStyle=orthogonalEdgeStyle;rounded=0;entryX=0;entryY=0;entryDx=0;entryDy=0;exitX=0.75;exitY=0.1;exitDx=0;exitDy=0;exitPerimeter=0;" edge="1" parent="1" source="l0JN7coe31MeSaqRDZ9P-1" target="l0JN7coe31MeSaqRDZ9P-52">
          <mxGeometry relative="1" as="geometry">
            <mxPoint x="140" y="40" as="sourcePoint" />
            <mxPoint x="590" y="330" as="targetPoint" />
          </mxGeometry>
        </mxCell>
        <mxCell id="l0JN7coe31MeSaqRDZ9P-54" value="" style="endArrow=none;html=1;edgeStyle=orthogonalEdgeStyle;rounded=0;entryX=0;entryY=0.5;entryDx=0;entryDy=0;" edge="1" parent="1" target="l0JN7coe31MeSaqRDZ9P-5">
          <mxGeometry relative="1" as="geometry">
            <mxPoint x="110" y="100" as="sourcePoint" />
            <mxPoint x="590" y="330" as="targetPoint" />
          </mxGeometry>
        </mxCell>
        <mxCell id="l0JN7coe31MeSaqRDZ9P-55" value="" style="endArrow=none;html=1;edgeStyle=orthogonalEdgeStyle;rounded=0;entryX=0;entryY=0.625;entryDx=0;entryDy=0;entryPerimeter=0;" edge="1" parent="1" target="l0JN7coe31MeSaqRDZ9P-7">
          <mxGeometry relative="1" as="geometry">
            <mxPoint x="100" y="100" as="sourcePoint" />
            <mxPoint x="500" y="260" as="targetPoint" />
          </mxGeometry>
        </mxCell>
        <mxCell id="l0JN7coe31MeSaqRDZ9P-56" value="" style="endArrow=none;html=1;edgeStyle=orthogonalEdgeStyle;rounded=0;entryX=0;entryY=0.5;entryDx=0;entryDy=0;" edge="1" parent="1" target="l0JN7coe31MeSaqRDZ9P-50">
          <mxGeometry relative="1" as="geometry">
            <mxPoint x="100" y="100" as="sourcePoint" />
            <mxPoint x="500" y="-70" as="targetPoint" />
          </mxGeometry>
        </mxCell>
        <mxCell id="l0JN7coe31MeSaqRDZ9P-57" value="" style="endArrow=none;html=1;edgeStyle=orthogonalEdgeStyle;rounded=0;entryX=0;entryY=0.5;entryDx=0;entryDy=0;" edge="1" parent="1" target="l0JN7coe31MeSaqRDZ9P-49">
          <mxGeometry relative="1" as="geometry">
            <mxPoint x="120" y="100" as="sourcePoint" />
            <mxPoint x="75" y="940" as="targetPoint" />
            <Array as="points">
              <mxPoint x="120" y="940" />
              <mxPoint x="200" y="940" />
            </Array>
          </mxGeometry>
        </mxCell>
        <mxCell id="l0JN7coe31MeSaqRDZ9P-58" value="" style="endArrow=none;html=1;edgeStyle=orthogonalEdgeStyle;rounded=0;entryX=-0.01;entryY=0.653;entryDx=0;entryDy=0;entryPerimeter=0;" edge="1" parent="1" target="l0JN7coe31MeSaqRDZ9P-8">
          <mxGeometry relative="1" as="geometry">
            <mxPoint x="100" y="100" as="sourcePoint" />
            <mxPoint x="500" y="460" as="targetPoint" />
          </mxGeometry>
        </mxCell>
        <mxCell id="l0JN7coe31MeSaqRDZ9P-59" value="" style="endArrow=none;html=1;edgeStyle=orthogonalEdgeStyle;rounded=0;entryX=0.024;entryY=0.609;entryDx=0;entryDy=0;entryPerimeter=0;" edge="1" parent="1" target="l0JN7coe31MeSaqRDZ9P-48">
          <mxGeometry relative="1" as="geometry">
            <mxPoint x="100" y="100" as="sourcePoint" />
            <mxPoint x="140" y="780" as="targetPoint" />
            <Array as="points">
              <mxPoint x="150" y="100" />
              <mxPoint x="150" y="793" />
            </Array>
          </mxGeometry>
        </mxCell>
        <mxCell id="l0JN7coe31MeSaqRDZ9P-60" value="" style="endArrow=none;html=1;edgeStyle=orthogonalEdgeStyle;rounded=0;exitX=0.5;exitY=0.5;exitDx=0;exitDy=0;exitPerimeter=0;entryX=1.018;entryY=0.62;entryDx=0;entryDy=0;entryPerimeter=0;" edge="1" parent="1" source="l0JN7coe31MeSaqRDZ9P-51" target="l0JN7coe31MeSaqRDZ9P-47">
          <mxGeometry relative="1" as="geometry">
            <mxPoint x="340" y="910" as="sourcePoint" />
            <mxPoint x="500" y="910" as="targetPoint" />
          </mxGeometry>
        </mxCell>
        <mxCell id="l0JN7coe31MeSaqRDZ9P-61" value="" style="endArrow=none;html=1;edgeStyle=orthogonalEdgeStyle;rounded=0;" edge="1" parent="1" source="l0JN7coe31MeSaqRDZ9P-2" target="l0JN7coe31MeSaqRDZ9P-45">
          <mxGeometry relative="1" as="geometry">
            <mxPoint x="340" y="910" as="sourcePoint" />
            <mxPoint x="390" y="790" as="targetPoint" />
          </mxGeometry>
        </mxCell>
        <mxCell id="l0JN7coe31MeSaqRDZ9P-63" value="" style="endArrow=none;html=1;edgeStyle=orthogonalEdgeStyle;rounded=0;entryX=1.018;entryY=0.407;entryDx=0;entryDy=0;entryPerimeter=0;" edge="1" parent="1" target="l0JN7coe31MeSaqRDZ9P-44">
          <mxGeometry relative="1" as="geometry">
            <mxPoint x="780" y="800" as="sourcePoint" />
            <mxPoint x="670" y="900" as="targetPoint" />
          </mxGeometry>
        </mxCell>
        <mxCell id="l0JN7coe31MeSaqRDZ9P-64" value="" style="endArrow=none;html=1;edgeStyle=orthogonalEdgeStyle;rounded=0;entryX=0.573;entryY=-0.023;entryDx=0;entryDy=0;entryPerimeter=0;" edge="1" parent="1" target="l0JN7coe31MeSaqRDZ9P-46">
          <mxGeometry relative="1" as="geometry">
            <mxPoint x="770" y="810" as="sourcePoint" />
            <mxPoint x="500" y="910" as="targetPoint" />
          </mxGeometry>
        </mxCell>
        <mxCell id="l0JN7coe31MeSaqRDZ9P-65" value="" style="endArrow=none;html=1;edgeStyle=orthogonalEdgeStyle;rounded=0;exitX=0.403;exitY=-0.037;exitDx=0;exitDy=0;exitPerimeter=0;entryX=-0.005;entryY=0.327;entryDx=0;entryDy=0;entryPerimeter=0;" edge="1" parent="1" source="l0JN7coe31MeSaqRDZ9P-52" target="l0JN7coe31MeSaqRDZ9P-4">
          <mxGeometry relative="1" as="geometry">
            <mxPoint x="340" y="20" as="sourcePoint" />
            <mxPoint x="500" y="20" as="targetPoint" />
          </mxGeometry>
        </mxCell>
        <mxCell id="l0JN7coe31MeSaqRDZ9P-66" value="" style="endArrow=none;html=1;edgeStyle=orthogonalEdgeStyle;rounded=0;entryX=0;entryY=0.5;entryDx=0;entryDy=0;" edge="1" parent="1" source="l0JN7coe31MeSaqRDZ9P-52" target="l0JN7coe31MeSaqRDZ9P-27">
          <mxGeometry relative="1" as="geometry">
            <mxPoint x="340" y="130" as="sourcePoint" />
            <mxPoint x="500" y="130" as="targetPoint" />
          </mxGeometry>
        </mxCell>
        <mxCell id="l0JN7coe31MeSaqRDZ9P-67" value="" style="endArrow=none;html=1;edgeStyle=orthogonalEdgeStyle;rounded=0;entryX=0.012;entryY=0.384;entryDx=0;entryDy=0;entryPerimeter=0;" edge="1" parent="1" source="l0JN7coe31MeSaqRDZ9P-52" target="l0JN7coe31MeSaqRDZ9P-33">
          <mxGeometry relative="1" as="geometry">
            <mxPoint x="340" y="130" as="sourcePoint" />
            <mxPoint x="500" y="130" as="targetPoint" />
          </mxGeometry>
        </mxCell>
        <mxCell id="l0JN7coe31MeSaqRDZ9P-68" value="" style="endArrow=none;html=1;edgeStyle=orthogonalEdgeStyle;rounded=0;entryX=0.049;entryY=0.199;entryDx=0;entryDy=0;entryPerimeter=0;" edge="1" parent="1" target="l0JN7coe31MeSaqRDZ9P-5">
          <mxGeometry relative="1" as="geometry">
            <mxPoint x="110" y="100" as="sourcePoint" />
            <mxPoint x="500" y="240" as="targetPoint" />
          </mxGeometry>
        </mxCell>
        <mxCell id="l0JN7coe31MeSaqRDZ9P-69" value="" style="endArrow=none;html=1;edgeStyle=orthogonalEdgeStyle;rounded=0;entryX=0.03;entryY=0.634;entryDx=0;entryDy=0;entryPerimeter=0;exitX=0.5;exitY=0;exitDx=0;exitDy=0;exitPerimeter=0;" edge="1" parent="1" source="l0JN7coe31MeSaqRDZ9P-3" target="l0JN7coe31MeSaqRDZ9P-5">
          <mxGeometry relative="1" as="geometry">
            <mxPoint x="40" y="380" as="sourcePoint" />
            <mxPoint x="500" y="240" as="targetPoint" />
            <Array as="points">
              <mxPoint x="45" y="361" />
            </Array>
          </mxGeometry>
        </mxCell>
        <mxCell id="l0JN7coe31MeSaqRDZ9P-70" value="" style="endArrow=none;html=1;edgeStyle=orthogonalEdgeStyle;rounded=0;entryX=-0.001;entryY=0.238;entryDx=0;entryDy=0;entryPerimeter=0;" edge="1" parent="1" source="l0JN7coe31MeSaqRDZ9P-3" target="l0JN7coe31MeSaqRDZ9P-52">
          <mxGeometry relative="1" as="geometry">
            <mxPoint x="70" y="420" as="sourcePoint" />
            <mxPoint x="620" y="500" as="targetPoint" />
          </mxGeometry>
        </mxCell>
        <mxCell id="l0JN7coe31MeSaqRDZ9P-71" value="" style="endArrow=none;html=1;edgeStyle=orthogonalEdgeStyle;rounded=0;entryX=0.5;entryY=1;entryDx=0;entryDy=0;" edge="1" parent="1" target="l0JN7coe31MeSaqRDZ9P-8">
          <mxGeometry relative="1" as="geometry">
            <mxPoint x="40" y="480" as="sourcePoint" />
            <mxPoint x="230" y="520" as="targetPoint" />
            <Array as="points">
              <mxPoint x="230" y="510" />
            </Array>
          </mxGeometry>
        </mxCell>
        <mxCell id="l0JN7coe31MeSaqRDZ9P-72" value="" style="endArrow=none;html=1;edgeStyle=orthogonalEdgeStyle;rounded=0;entryX=0.5;entryY=1;entryDx=0;entryDy=0;" edge="1" parent="1" source="l0JN7coe31MeSaqRDZ9P-3" target="l0JN7coe31MeSaqRDZ9P-7">
          <mxGeometry relative="1" as="geometry">
            <mxPoint x="30" y="500" as="sourcePoint" />
            <mxPoint x="620" y="340" as="targetPoint" />
          </mxGeometry>
        </mxCell>
      </root>
    </mxGraphModel>
  </diagram>
</mxfile>
